<svg xmlns="http://www.w3.org/2000/svg" width="400" height="400" viewBox="0 0 400 400"><path d="M58.705 180.84c2.597-1.075 4.295-3.612 4.295-6.42v-25.677c0-3.84-3.125-6.743-6.965-6.743h-13.75c-2.15 0-4.175.893-5.492 2.586-1.317 1.7-1.778 3.854-1.246 5.936 2.99 11.714 8.524 21.8 15.582 28.846 1.98 1.985 4.98 2.548 7.57 1.472zm78.134 79.1c-1.28-.25-2.59-.444-3.93-.638-29.45-4.007-74.22 6.7-102.97 39.707-4.04 4.64-11.04 5.11-15.69 1.08-4.65-4.04-5.12-11.07-1.09-15.69 34.34-39.46 86.39-52.11 122.74-47.13 4.7.64 9.09 1.55 13.21 2.75 1.89-5.51 2.87-11.29 2.87-17.16V56.31c0-11.99 3.02-23.888 8.7-34.43L172.47 0H30.8C13.79 0 0 13.79 0 30.8v335.443c.622-.39 1.29-.73 2-.997 27.5-10.344 76.36-48.44 134.086-104.525.25-.25.53-.5.753-.78zM74.11 49.24c34.952 0 63.277 36.46 63.277 81.43 0 44.97-28.325 81.428-63.277 81.428-34.94 0-63.277-36.457-63.277-81.427 0-44.97 28.338-81.43 63.277-81.43zm15.295 131.6c2.595 1.076 5.643.486 7.634-1.5 7.05-7.044 12.61-17.156 15.6-28.87.53-2.08.09-4.186-1.23-5.885-1.32-1.693-3.33-2.585-5.48-2.585H92.18c-3.84 0-7.185 2.906-7.185 6.746v25.673c0 2.81 1.807 5.34 4.404 6.42zm2.78-60.84h13.752c2.148 0 4.173-1.224 5.49-2.918 1.318-1.698 1.78-4.018 1.247-6.1-2.99-11.714-8.52-21.883-15.576-28.928-1.99-1.985-5.098-2.604-7.693-1.527C86.808 81.604 85 84.107 85 86.92v25.676c0 3.84 3.345 7.404 7.185 7.404zm-49.9 0h13.75c3.84 0 6.965-3.565 6.965-7.404V86.92c0-2.812-1.698-5.345-4.295-6.42-2.596-1.077-5.588-.487-7.58 1.498-7.054 7.045-12.587 17.157-15.577 28.87-.532 2.083-.075 4.52 1.243 6.218 1.32 1.697 3.35 2.914 5.5 2.914zM369.2 0h-14.55c.02.28.35.548.35.834V295.95l38.437 76.5c2.78 5.478.517 12.148-4.987 14.93-1.585.808-3.345 1.195-5.01 1.195-4.09 0-8.026-2.25-9.973-6.115l-29.846-59.176-29.81 59.176c-1.97 3.865-5.89 6.115-9.95 6.115-1.66 0-3.39-.388-5-1.194-5.47-2.78-7.92-9.45-5.17-14.93l38.32-76.5V.84c0-.286.56-.554.58-.834H196.17c.003 1.78-.37 3.583-1.266 5.255L180.18 32.4c-3.947 7.334-6.18 15.595-6.18 23.91v166.564c0 9.122-1.55 18.16-4.776 26.585 5.952 4.33 10.56 9.64 13.478 15.76 8.983 18.88 7.878 42.74-3.02 63.87-9.096 17.65-33.27 48.83-92.86 59.31-.667.11-1.296.16-1.938.16-5.282 0-9.977-3.81-10.922-9.2-1.056-6.06 2.98-11.82 9.04-12.88 50.137-8.82 69.742-33.59 76.944-47.61 7.73-14.99 8.76-31.45 2.754-44.07-.975-2.03-2.446-3.95-4.42-5.67-2.032 2.64-4.282 5.14-6.702 7.5C116.428 310.8 51.248 370.48 9.84 386.05c-1.27.5-2.61.723-3.91.723-.13 0-.27-.026-.4-.03 5.55 8 14.8 13.243 25.27 13.243h338.4c17.01 0 30.8-13.79 30.8-30.8V30.8C400 13.79 386.21 0 369.2 0zM385 300.644c0 6.144-4.856 11.124-11 11.124-6.143 0-11-4.98-11-11.124V23.934c0-6.14 4.857-11.122 11-11.122 6.144 0 11 4.98 11 11.123v276.71zm-83-276.71c0-6.14 4.857-11.122 11-11.122s11 4.98 11 11.123v276.71c0 6.143-4.858 11.123-11 11.123s-11-4.98-11-11.124V23.934zm-14 63.41c0 13.124-9.77 24.438-22.756 26.303-4.645.667-8.244 1.167-11.244 1.53v16.657c3 .305 5.263.723 7.768 1.25l12.713 2.78c7.9 1.67 13.52 8.788 13.52 16.88v222.57c0 6.117-4.88 11.12-11 11.12-6.14 0-11-5.003-11-11.12V156.746l-9.03-1.89c-.94-.195-1.96-.388-2.96-.555v232.36c0 6.15-4.85 11.13-11 11.13s-11-4.97-11-11.12V154.31c-1 .167-1.78.36-2.73.555l-8.71 1.808c-.22.056-.56.278-.56.5v201.46c0 6.12-4.85 11.123-11 11.123-6.14 0-11-5.004-11-11.122V157.167c0-10.65 7.67-20.02 18.07-22.246l8.48-1.83c2.51-.52 5.45-.94 7.45-1.25v-16.71c-3-.39-7.47-.94-13.01-1.75-11.95-1.76-20.99-12.18-20.99-24.31V59.98c0-6.146 4.86-11.122 11-11.122 6.15 0 11 4.976 11 11.122v29.084c0 1.142.96 2.113 2.07 2.28 3.95.56 7.94 1.003 9.94 1.365V29.89c0-.363-.06-.894-.42-.894h-22.25c-6.14 0-11.12-4.856-11.12-11 0-6.147 4.98-11 11.128-11H231.6C244.2 7 254 17.27 254 29.893v62.844c3-.278 5.025-.643 8.197-1.116 2.14-.3 3.803-2.11 3.803-4.27V23.69c0-6.146 4.852-11.122 11-11.122 6.115 0 11 4.977 11 11.122v63.653z"/></svg>