<?xml version="1.0" standalone="no"?>
<!DOCTYPE svg PUBLIC "-//W3C//DTD SVG 20010904//EN"
 "http://www.w3.org/TR/2001/REC-SVG-20010904/DTD/svg10.dtd">
<svg version="1.0" xmlns="http://www.w3.org/2000/svg"
 width="700.000000pt" height="700.000000pt" viewBox="0 0 700.000000 700.000000"
 preserveAspectRatio="xMidYMid meet">
<metadata>
Created by potrace 1.11, written by Peter Selinger 2001-2013
</metadata>
<g transform="translate(0.000000,700.000000) scale(0.100000,-0.100000)"
fill="#000000" stroke="none">
<path d="M3298 6996 c-1 -2 -41 -6 -88 -10 -100 -7 -225 -22 -295 -36 -27 -5
-61 -12 -75 -14 -431 -79 -909 -273 -1275 -519 -69 -46 -297 -217 -305 -228
-3 -3 -25 -23 -50 -44 -84 -68 -247 -232 -374 -375 -96 -108 -297 -394 -376
-535 -258 -463 -405 -938 -448 -1445 -9 -111 -8 -504 1 -600 12 -109 27 -225
41 -295 2 -11 6 -36 10 -55 11 -62 14 -75 39 -181 24 -100 79 -282 97 -324 4
-11 25 -65 46 -120 20 -55 64 -156 97 -224 450 -934 1278 -1617 2274 -1876 72
-19 142 -36 155 -39 13 -2 60 -11 106 -20 46 -9 111 -19 145 -22 34 -3 65 -8
68 -10 15 -9 234 -19 414 -19 183 0 335 8 425 21 603 89 1062 261 1520 569
254 171 530 415 695 615 21 25 41 47 44 50 4 3 45 55 91 115 327 430 543 908
649 1432 16 81 33 177 37 213 3 36 8 68 10 71 24 41 23 779 0 818 -2 3 -7 33
-10 66 -3 33 -8 69 -10 80 -2 11 -11 61 -21 110 -98 526 -338 1055 -671 1480
-200 256 -456 505 -702 683 -51 37 -101 72 -110 77 -9 6 -43 27 -74 48 -415
270 -957 463 -1468 522 -30 4 -68 8 -85 11 -35 5 -521 14 -527 10z m518 -159
c17 -2 57 -7 90 -11 259 -30 524 -96 794 -198 98 -37 362 -162 475 -225 110
-61 351 -228 435 -299 14 -12 48 -41 75 -64 187 -159 399 -392 551 -605 300
-422 522 -980 580 -1457 2 -24 7 -52 9 -63 27 -136 27 -639 -1 -840 -11 -81
-45 -279 -49 -285 -2 -4 -7 -22 -10 -41 -3 -19 -19 -83 -36 -144 -223 -794
-705 -1452 -1403 -1915 -58 -38 -108 -70 -111 -70 -3 0 -22 -11 -43 -23 -55
-35 -244 -130 -349 -176 -244 -107 -613 -211 -838 -236 -33 -4 -69 -9 -80 -11
-99 -19 -557 -26 -709 -11 -111 11 -223 26 -276 37 -25 5 -58 11 -75 14 -16 2
-93 20 -170 39 -700 177 -1328 580 -1781 1142 -308 382 -521 809 -644 1290
-17 66 -33 138 -36 160 -3 22 -10 56 -14 75 -5 19 -12 62 -15 95 -3 33 -8 67
-10 75 -19 72 -27 538 -12 715 4 50 14 133 23 185 8 52 17 111 20 130 3 19 19
91 36 160 189 796 674 1505 1348 1972 407 282 896 481 1360 552 58 9 118 19
134 21 16 3 66 8 110 11 45 4 83 8 85 10 5 5 499 -3 537 -9z"/>
<path d="M3410 6809 c-190 -32 -337 -159 -410 -352 -18 -49 -31 -71 -41 -68
-8 2 -43 12 -79 22 -349 101 -693 -200 -676 -590 3 -53 9 -111 15 -130 6 -19
10 -35 8 -36 -1 -1 -28 -14 -60 -30 -112 -56 -204 -176 -240 -317 -20 -78 -15
-215 12 -300 55 -174 209 -304 370 -312 l56 -3 -2 -86 c-6 -327 266 -619 661
-708 l79 -18 46 39 c25 21 72 52 104 68 l58 29 -63 13 c-35 7 -67 14 -73 16
-5 1 -41 14 -80 28 -317 121 -557 405 -699 831 -27 81 -63 207 -71 256 -25
136 -42 245 -40 248 5 4 23 -63 31 -114 18 -114 111 -381 184 -525 186 -370
440 -582 785 -656 11 -3 54 -7 96 -11 l76 -6 2 172 c2 158 0 171 -16 172 -10
0 -27 2 -38 4 -11 2 -40 7 -64 10 -68 10 -176 52 -254 99 -211 126 -353 339
-452 681 -13 44 -26 96 -29 115 -3 19 -8 45 -10 58 -13 61 -26 177 -30 272
l-5 105 13 -95 c8 -52 24 -140 36 -195 12 -55 23 -110 26 -122 10 -50 79 -233
117 -312 100 -205 225 -348 387 -439 86 -48 224 -90 291 -88 l33 1 2 151 2
152 -66 16 c-152 36 -313 148 -401 279 -86 127 -144 308 -166 517 -6 52 -6
341 0 369 2 13 5 41 7 63 4 67 13 50 14 -25 1 -79 14 -269 19 -277 2 -3 6 -30
10 -60 7 -65 37 -194 64 -275 70 -214 197 -382 344 -455 56 -27 167 -64 174
-57 1 2 3 44 4 95 3 86 1 94 -22 120 -142 155 -223 481 -235 957 -7 230 -1
294 11 135 8 -107 16 -181 36 -310 14 -94 19 -120 30 -170 6 -25 12 -53 14
-62 10 -49 57 -210 71 -244 28 -69 84 -183 92 -188 5 -3 9 79 11 182 1 103 4
248 6 322 2 74 4 222 4 328 1 105 4 192 9 192 4 0 8 -48 8 -108 5 -389 16
-917 19 -920 7 -7 77 130 105 207 50 136 107 392 125 561 3 30 7 69 9 85 2 17
7 68 11 115 4 47 9 87 12 90 2 3 3 -76 2 -175 -2 -167 -8 -264 -23 -383 -14
-109 -18 -130 -32 -192 -9 -36 -18 -75 -20 -88 -18 -93 -111 -283 -166 -342
-22 -23 -24 -32 -21 -114 2 -49 4 -91 6 -92 7 -7 112 26 170 54 135 64 238
185 318 374 31 71 83 261 93 338 3 25 8 56 11 70 8 39 18 197 19 282 1 42 4
74 8 70 15 -16 27 -396 14 -482 -23 -152 -33 -199 -63 -289 -87 -261 -263
-436 -502 -497 l-71 -18 3 -151 4 -150 29 -1 c85 -2 239 51 338 116 217 144
376 400 467 753 25 99 23 90 43 213 9 54 18 110 20 124 6 33 -3 -157 -10 -212
-8 -68 -43 -245 -54 -273 -5 -14 -8 -25 -5 -25 8 0 -57 -176 -95 -257 -100
-214 -233 -359 -412 -449 -85 -43 -219 -80 -296 -83 l-23 -1 2 -162 c2 -90 4
-168 6 -174 4 -12 129 -1 208 18 28 7 52 13 55 13 52 9 198 79 279 134 156
106 309 293 415 508 83 168 170 429 192 576 3 20 10 50 14 65 15 44 0 -81 -21
-193 -106 -545 -352 -940 -690 -1110 -90 -45 -234 -90 -298 -94 -8 -1 12 -14
45 -31 32 -16 80 -47 106 -68 l47 -40 63 15 c329 76 572 277 650 538 20 67 28
171 17 223 -6 28 -4 32 15 33 74 3 118 14 182 44 115 56 201 166 238 305 15
57 15 60 17 146 4 179 -101 363 -246 435 -70 34 -69 33 -55 97 6 24 11 78 12
120 4 273 -170 512 -422 577 -78 21 -225 16 -284 -9 -62 -26 -70 -22 -90 42
-52 165 -202 310 -365 352 -57 15 -163 19 -221 9z m87 -431 c-3 -8 -6 -5 -6 6
-1 11 2 17 5 13 3 -3 4 -12 1 -19z m7 -63 c-4 -8 -8 -15 -10 -15 -2 0 -4 7 -4
15 0 8 4 15 10 15 5 0 7 -7 4 -15z m-1217 -887 c-3 -7 -5 -2 -5 12 0 14 2 19
5 13 2 -7 2 -19 0 -25z"/>
<path d="M1385 4094 c-139 -42 -270 -142 -333 -254 -42 -75 -65 -168 -60 -248
l3 -66 -41 -12 c-161 -47 -308 -170 -379 -319 -109 -231 -66 -465 116 -635
l48 -45 -44 -49 c-198 -218 -181 -559 37 -750 124 -108 308 -154 472 -116 51
11 64 6 67 -30 4 -81 57 -189 134 -278 47 -55 170 -127 250 -146 62 -16 72
-17 145 -17 89 -1 124 5 207 32 67 22 192 99 232 142 l24 27 34 -26 c280 -214
749 -4 792 355 9 77 -6 167 -38 224 -12 21 -21 39 -21 42 0 2 33 21 73 42 151
79 274 251 312 438 32 152 18 359 -34 509 -16 47 -20 51 -84 77 -37 15 -83 39
-103 54 -38 29 -52 28 -36 -2 23 -44 54 -205 57 -298 7 -231 -60 -449 -209
-679 -121 -186 -334 -408 -544 -568 -61 -46 -57 -31 5 20 148 123 322 318 427
477 169 257 239 473 232 715 -4 130 -7 149 -33 239 -17 61 -70 191 -83 205
-13 13 -312 -154 -301 -168 13 -16 58 -147 65 -187 3 -18 8 -45 11 -59 11 -48
6 -208 -9 -272 -20 -85 -59 -188 -98 -257 -123 -219 -368 -463 -635 -634 -40
-26 -73 -45 -73 -43 0 3 30 27 68 54 245 179 458 416 566 629 33 66 71 168 80
213 3 19 9 46 12 60 9 43 11 169 3 218 -15 94 -20 113 -39 165 -34 89 -23 88
-169 8 -72 -40 -131 -76 -131 -80 0 -4 6 -30 14 -57 76 -265 -4 -525 -230
-746 -80 -77 -124 -112 -249 -194 -88 -58 -342 -190 -350 -182 -2 2 28 24 68
48 400 246 636 513 693 785 10 47 4 178 -11 237 -9 35 -18 64 -20 66 -2 2 -38
-16 -80 -39 -68 -37 -80 -48 -97 -88 -100 -237 -339 -461 -758 -709 -165 -97
-171 -93 -17 15 228 162 413 324 538 473 54 64 122 168 117 179 -2 4 -64 -25
-138 -66 -74 -41 -173 -95 -220 -120 -91 -50 -115 -63 -288 -160 -63 -35 -116
-63 -118 -63 -2 0 -21 -10 -42 -23 -56 -35 -198 -111 -187 -100 10 10 298 184
325 196 8 4 119 70 245 146 127 77 267 161 312 188 46 26 83 52 83 57 0 5 -39
6 -87 2 -83 -6 -104 -8 -163 -21 -14 -3 -35 -7 -47 -9 -122 -24 -351 -104
-573 -202 -91 -40 -154 -65 -141 -56 48 34 159 95 306 167 350 171 575 229
788 201 56 -7 60 -6 122 33 36 23 69 41 75 41 18 0 11 15 -29 57 -50 54 -146
116 -224 144 -89 31 -305 36 -429 9 -199 -43 -468 -150 -619 -246 -67 -42 -42
-12 34 41 221 154 456 262 651 300 88 18 292 13 356 -8 123 -40 209 -92 298
-180 l58 -56 84 51 c47 28 106 64 132 80 l48 30 -19 27 c-63 86 -184 188 -286
238 -53 27 -155 58 -235 72 -71 13 -259 17 -330 7 -25 -4 -63 -9 -85 -12 -167
-24 -470 -121 -597 -191 -5 -2 -8 -2 -8 1 0 10 217 112 315 148 268 99 396
124 625 122 164 -2 253 -23 389 -91 75 -37 111 -64 181 -132 48 -47 96 -99
107 -116 l21 -29 146 87 146 88 -17 27 c-149 237 -404 402 -688 447 -140 22
-376 27 -465 10 -19 -4 -42 -7 -50 -7 -64 0 -358 -72 -467 -114 -80 -31 -93
-30 -23 3 148 68 417 144 615 173 88 14 296 17 390 8 237 -25 463 -133 624
-297 l76 -78 0 86 c0 47 3 102 8 122 7 36 6 39 -70 116 -289 292 -662 363
-947 180 -35 -22 -51 -28 -54 -19 -9 29 -71 99 -116 133 -27 20 -76 46 -110
57 -77 24 -211 27 -281 6z"/>
<path d="M5355 4095 c-94 -28 -184 -93 -227 -163 -12 -21 -23 -39 -25 -41 -1
-2 -20 7 -41 21 -110 73 -215 106 -338 106 -224 1 -440 -100 -627 -292 -62
-65 -67 -73 -60 -101 4 -16 8 -69 8 -117 0 -49 2 -88 4 -88 2 0 32 28 65 63
126 130 261 213 431 263 71 21 54 17 144 33 110 20 421 17 483 -4 7 -2 29 -6
48 -9 92 -14 216 -45 324 -80 90 -30 237 -88 233 -92 -2 -2 -43 9 -93 25 -91
30 -199 60 -244 67 -14 3 -38 7 -55 11 -48 11 -55 12 -145 24 -96 13 -352 16
-420 5 -125 -20 -166 -29 -235 -51 -204 -67 -389 -204 -504 -373 l-41 -61 146
-87 146 -88 25 35 c47 62 178 183 236 218 133 78 263 113 437 115 222 2 378
-29 650 -129 61 -23 270 -122 270 -129 0 -7 -19 1 -82 31 -105 51 -394 134
-512 148 -28 4 -53 8 -57 11 -13 7 -259 7 -314 -1 -230 -33 -399 -126 -538
-298 -35 -43 -36 -47 -20 -57 10 -6 70 -42 133 -80 l115 -68 56 55 c68 67 124
106 204 143 173 80 412 76 653 -11 73 -27 232 -104 299 -146 29 -18 54 -33 57
-33 8 0 186 -131 186 -136 0 -2 -17 7 -39 20 -173 109 -494 234 -671 261 -25
4 -54 9 -65 11 -11 2 -61 4 -111 5 -170 1 -310 -51 -420 -154 -35 -32 -62 -63
-59 -68 3 -4 39 -27 81 -49 69 -39 79 -41 122 -34 84 13 161 10 280 -11 158
-28 469 -157 727 -303 135 -76 168 -104 57 -48 -229 115 -594 243 -772 270
-55 9 -220 19 -220 14 0 -3 37 -27 83 -54 269 -158 814 -487 822 -496 10 -10
-56 24 -205 108 -127 71 -142 79 -225 124 -44 24 -114 62 -155 85 -41 23 -106
59 -145 80 -38 20 -97 53 -131 71 -33 19 -64 34 -67 34 -4 0 3 -17 15 -37 98
-170 338 -405 621 -608 54 -38 107 -75 118 -81 12 -7 26 -17 32 -24 12 -12
-70 30 -143 75 -19 12 -42 24 -50 28 -87 39 -410 283 -500 378 -110 116 -165
195 -201 288 -21 54 -25 58 -102 99 -43 24 -81 41 -83 39 -3 -2 -7 -14 -9 -26
-3 -11 -8 -31 -11 -43 -13 -50 -15 -181 -4 -245 40 -232 266 -497 620 -728 52
-34 113 -72 135 -83 64 -34 31 -25 -58 15 -110 50 -207 102 -297 161 -211 138
-363 298 -437 458 -65 142 -80 301 -43 448 12 47 19 90 16 95 -6 10 -244 141
-256 141 -11 0 -45 -85 -64 -163 -63 -253 22 -539 240 -814 82 -103 291 -302
396 -376 84 -60 64 -56 -28 4 -206 136 -398 315 -521 486 -195 270 -245 570
-138 837 14 35 25 67 25 72 0 8 -259 155 -286 162 -21 5 -103 -197 -118 -293
-46 -293 20 -558 212 -855 109 -169 281 -362 439 -492 40 -33 73 -63 73 -65 0
-4 -68 45 -80 57 -3 3 -30 24 -60 46 -136 102 -346 323 -449 474 -96 140 -187
331 -207 433 -2 10 -5 26 -8 35 -9 28 -17 106 -20 183 -4 98 9 198 38 301 14
45 23 84 22 85 -1 1 -20 -10 -42 -24 -21 -15 -68 -39 -103 -53 -74 -30 -77
-35 -113 -195 -20 -88 -27 -275 -13 -335 3 -14 8 -41 11 -60 10 -58 61 -182
100 -239 53 -79 136 -154 215 -196 38 -20 69 -38 69 -40 0 -3 -9 -20 -20 -40
-64 -114 -51 -288 32 -417 69 -109 219 -212 345 -238 124 -26 286 5 369 71
l37 29 26 -22 c14 -13 30 -28 36 -34 15 -16 115 -78 156 -97 208 -96 478 -49
635 109 70 71 127 176 139 255 11 71 13 73 81 59 220 -46 437 42 556 224 90
139 108 347 42 491 -25 55 -86 145 -118 174 l-26 25 53 50 c80 77 124 148 158
260 12 40 16 172 7 216 -36 164 -112 283 -243 380 -49 36 -154 90 -174 90 -5
0 -21 5 -35 11 -24 11 -25 15 -19 73 11 124 -41 249 -148 357 -70 71 -166 124
-263 148 -59 15 -187 13 -241 -4z m460 -515 c3 -6 -1 -7 -9 -4 -18 7 -21 14
-7 14 6 0 13 -4 16 -10z m189 -1511 c20 -12 36 -23 36 -25 0 -5 -44 18 -70 35
-27 19 -2 11 34 -10z"/>
<path d="M3445 3933 c-172 -23 -319 -151 -365 -318 -17 -62 -17 -194 0 -237
34 -85 52 -117 91 -162 206 -234 579 -187 717 89 122 242 -8 539 -268 614 -43
12 -135 20 -175 14z"/>
</g>
</svg>
